# xmcd
#
# Track frame offsets: 
#        150
#        49709
#        101122
#        138257
#        170973
#        183493
#        216228
#        243112
#        270810
#        313200
#
# Disc length: 4628 seconds
#
# Revision: 3
# Processed by: cddbd v1.5.2PL0 Copyright (c) Steve Scherf et al.
# Submitted via: ExactAudioCopy v0.99pb5
#
DISCID=8f12120a
DTITLE=Various Artist - One Night with Blue Note - CD
DYEAR=2003
DGENRE=Jazz
TTITLE0=Cantaloupe Island
TTITLE1=Recorda-Me
TTITLE2=Little B's Poem
TTITLE3=SummerTime
TTITLE4=Sweet and Lovely
TTITLE5=Appointment in Ghana
TTITLE6=Blues Walk
TTITLE7=The Jumpin' Blues
TTITLE8=Scratch My Back
TTITLE9=One Night with Blue Note
EXTD=
EXTT0=
EXTT1=
EXTT2=
EXTT3=
EXTT4=
EXTT5=
EXTT6=
EXTT7=
EXTT8=
EXTT9=
PLAYORDER=
